<svg width="101" height="43" viewBox="0 0 101 43" fill="none" xmlns="http://www.w3.org/2000/svg">
<path fill-rule="evenodd" clip-rule="evenodd" d="M26.1111 10.8H24.6667V8H21.7778V10.8H10.2222V8H7.33333V10.8H5.88889C4.3 10.8 3 12.06 3 13.6V33.2C3 34.74 4.3 36 5.88889 36H26.1111C27.7 36 29 34.74 29 33.2V13.6C29 12.06 27.7 10.8 26.1111 10.8ZM26.1111 33.2H5.88889V19.2H26.1111V33.2ZM5.88889 13.6V16.4H26.1111V13.6H5.88889Z" fill="#3F51B5"/>
<path fill-rule="evenodd" clip-rule="evenodd" d="M20.2214 20.4833L23.5833 23.75L20.2214 27.0167V24.5667H14.3148V22.9333H20.2214V20.4833ZM8.41667 28.65L11.7786 25.3833V27.8333H17.6852V29.4667H11.7786V31.9167L8.41667 28.65Z" fill="#3F51B5"/>
<path d="M45.138 25.312C43.6993 25.312 42.304 25.1213 40.952 24.74C39.6173 24.3413 38.5427 23.83 37.728 23.206L39.158 20.034C39.938 20.606 40.8653 21.0653 41.94 21.412C43.0147 21.7587 44.0893 21.932 45.164 21.932C46.36 21.932 47.244 21.7587 47.816 21.412C48.388 21.048 48.674 20.5713 48.674 19.982C48.674 19.5487 48.5007 19.1933 48.154 18.916C47.8247 18.6213 47.3913 18.3873 46.854 18.214C46.334 18.0407 45.6233 17.85 44.722 17.642C43.3353 17.3127 42.2 16.9833 41.316 16.654C40.432 16.3247 39.6693 15.796 39.028 15.068C38.404 14.34 38.092 13.3693 38.092 12.156C38.092 11.0987 38.378 10.1453 38.95 9.296C39.522 8.42933 40.38 7.74467 41.524 7.242C42.6853 6.73933 44.098 6.488 45.762 6.488C46.9233 6.488 48.0587 6.62667 49.168 6.904C50.2773 7.18133 51.248 7.58 52.08 8.1L50.78 11.298C49.0987 10.3447 47.4173 9.868 45.736 9.868C44.5573 9.868 43.682 10.0587 43.11 10.44C42.5553 10.8213 42.278 11.324 42.278 11.948C42.278 12.572 42.5987 13.04 43.24 13.352C43.8987 13.6467 44.8953 13.9413 46.23 14.236C47.6167 14.5653 48.752 14.8947 49.636 15.224C50.52 15.5533 51.274 16.0733 51.898 16.784C52.5393 17.4947 52.86 18.4567 52.86 19.67C52.86 20.71 52.5653 21.6633 51.976 22.53C51.404 23.3793 50.5373 24.0553 49.376 24.558C48.2147 25.0607 46.802 25.312 45.138 25.312ZM63.9541 10.804C65.6874 10.804 67.0827 11.324 68.1401 12.364C69.2147 13.404 69.7521 14.9467 69.7521 16.992V25H65.6961V17.616C65.6961 16.5067 65.4534 15.6833 64.9681 15.146C64.4827 14.5913 63.7807 14.314 62.8621 14.314C61.8394 14.314 61.0247 14.6347 60.4181 15.276C59.8114 15.9 59.5081 16.836 59.5081 18.084V25H55.4521V5.708H59.5081V12.468C60.0454 11.9307 60.6954 11.5233 61.4581 11.246C62.2207 10.9513 63.0527 10.804 63.9541 10.804ZM73.4286 11.012H77.4846V25H73.4286V11.012ZM75.4566 9.062C74.7113 9.062 74.1046 8.84533 73.6366 8.412C73.1686 7.97867 72.9346 7.44133 72.9346 6.8C72.9346 6.15867 73.1686 5.62133 73.6366 5.188C74.1046 4.75467 74.7113 4.538 75.4566 4.538C76.202 4.538 76.8086 4.746 77.2766 5.162C77.7446 5.578 77.9786 6.098 77.9786 6.722C77.9786 7.398 77.7446 7.96133 77.2766 8.412C76.8086 8.84533 76.202 9.062 75.4566 9.062ZM85.695 11.324H89.283V14.444H85.799V25H81.743V14.444H79.585V11.324H81.743V10.7C81.743 9.10533 82.211 7.84 83.147 6.904C84.1003 5.968 85.435 5.5 87.151 5.5C87.7576 5.5 88.3296 5.56933 88.867 5.708C89.4216 5.82933 89.881 6.01133 90.245 6.254L89.179 9.192C88.711 8.86267 88.165 8.698 87.541 8.698C86.3103 8.698 85.695 9.374 85.695 10.726V11.324ZM100.326 24.324C99.927 24.6187 99.433 24.844 98.8436 25C98.2716 25.1387 97.665 25.208 97.0236 25.208C95.3596 25.208 94.0683 24.7833 93.1496 23.934C92.2483 23.0847 91.7976 21.8367 91.7976 20.19V14.444H89.6396V11.324H91.7976V7.918H95.8536V11.324H99.3376V14.444H95.8536V20.138C95.8536 20.7273 96.001 21.1867 96.2956 21.516C96.6076 21.828 97.041 21.984 97.5956 21.984C98.237 21.984 98.783 21.8107 99.2336 21.464L100.326 24.324Z" fill="#3F51B5"/>
<rect x="37" y="29" width="64" height="14" rx="7" fill="#ABABAB"/>
<path d="M64.5405 40.08C64.2671 40.08 64.0371 39.9867 63.8505 39.8C63.6638 39.6133 63.5705 39.38 63.5705 39.1C63.5705 38.8133 63.6638 38.5833 63.8505 38.41C64.0371 38.23 64.2671 38.14 64.5405 38.14C64.8138 38.14 65.0438 38.23 65.2305 38.41C65.4171 38.5833 65.5105 38.8133 65.5105 39.1C65.5105 39.38 65.4171 39.6133 65.2305 39.8C65.0438 39.9867 64.8138 40.08 64.5405 40.08ZM66.5677 34.62H68.1277V40H66.5677V34.62ZM67.3477 33.87C67.061 33.87 66.8277 33.7867 66.6477 33.62C66.4677 33.4533 66.3777 33.2467 66.3777 33C66.3777 32.7533 66.4677 32.5467 66.6477 32.38C66.8277 32.2133 67.061 32.13 67.3477 32.13C67.6343 32.13 67.8677 32.21 68.0477 32.37C68.2277 32.53 68.3177 32.73 68.3177 32.97C68.3177 33.23 68.2277 33.4467 68.0477 33.62C67.8677 33.7867 67.6343 33.87 67.3477 33.87ZM72.8455 34.54C73.5121 34.54 74.0488 34.74 74.4555 35.14C74.8688 35.54 75.0755 36.1333 75.0755 36.92V40H73.5155V37.16C73.5155 36.7333 73.4221 36.4167 73.2355 36.21C73.0488 35.9967 72.7788 35.89 72.4255 35.89C72.0321 35.89 71.7188 36.0133 71.4855 36.26C71.2521 36.5 71.1355 36.86 71.1355 37.34V40H69.5755V34.62H71.0655V35.25C71.2721 35.0233 71.5288 34.85 71.8355 34.73C72.1421 34.6033 72.4788 34.54 72.8455 34.54Z" fill="white"/>
</svg>
